<?xml version="1.0" encoding="UTF-8" standalone="no"?>
<!-- Created with Inkscape (http://www.inkscape.org/) -->

<svg
   width="32"
   height="32"
   viewBox="0 0 8.4666659 8.4666659"
   version="1.1"
   id="svg4388"
   inkscape:version="1.1 (c68e22c387, 2021-05-23)"
   sodipodi:docname="logo-ps.svg"
   inkscape:export-filename="C:\Users\pedro\OneDrive\Documents\GitHub\phen97.github.io\logo-ps.png"
   inkscape:export-xdpi="105.71"
   inkscape:export-ydpi="105.71"
   xmlns:inkscape="http://www.inkscape.org/namespaces/inkscape"
   xmlns:sodipodi="http://sodipodi.sourceforge.net/DTD/sodipodi-0.dtd"
   xmlns="http://www.w3.org/2000/svg"
   xmlns:svg="http://www.w3.org/2000/svg">
  <sodipodi:namedview
     id="namedview4390"
     pagecolor="#505050"
     bordercolor="#eeeeee"
     borderopacity="1"
     inkscape:pageshadow="0"
     inkscape:pageopacity="0"
     inkscape:pagecheckerboard="0"
     inkscape:document-units="px"
     showgrid="false"
     units="px"
     inkscape:zoom="2.324"
     inkscape:cx="-14.629948"
     inkscape:cy="47.977625"
     inkscape:window-width="1366"
     inkscape:window-height="697"
     inkscape:window-x="-8"
     inkscape:window-y="-8"
     inkscape:window-maximized="1"
     inkscape:current-layer="layer1"
     width="120.94489px"
     lock-margins="false" />
  <defs
     id="defs4385" />
  <g
     inkscape:label="Layer 1"
     inkscape:groupmode="layer"
     id="layer1">
    <g
       id="g831"
       transform="matrix(0.25576389,0,0,0.25576389,0.14111074,0.14111071)"
       style="stroke-width:3.90986">
      <g
         id="g4496"
         transform="matrix(0.94634779,0,0,0.94634779,12.379207,-8.3793118)"
         style="stroke-width:4.13151">
        <path
           id="path846"
           style="fill:#000000;fill-rule:evenodd;stroke-width:10.0743;paint-order:markers stroke fill;stop-color:#000000"
           d="M -1.6244533,12.76149 A 10.399982,10.399982 0 0 0 -12.024338,23.161375 V 38.76147 H -1.6244533 V 33.561438 A 10.399982,10.399982 0 0 0 8.7756103,23.161375 10.399982,10.399982 0 0 0 -1.6244533,12.76149 Z" />
        <path
           style="opacity:1;fill:#000000;fill-rule:evenodd;stroke-width:29.0605;paint-order:markers stroke fill;stop-color:#000000"
           id="circle2599"
           sodipodi:type="arc"
           sodipodi:cx="8.3114805"
           sodipodi:cy="-25.00563"
           sodipodi:rx="10.399981"
           sodipodi:ry="10.399981"
           sodipodi:start="0"
           sodipodi:end="3.1415927"
           sodipodi:arc-type="slice"
           transform="rotate(133.13205)"
           d="m 18.711461,-25.00563 a 10.399981,10.399981 0 0 1 -5.19999,9.006647 10.399981,10.399981 0 0 1 -10.399981,0 10.399981,10.399981 0 0 1 -5.19999,-9.006647 H 8.3114805 Z" />
        <path
           style="opacity:1;fill:#000000;fill-rule:evenodd;stroke-width:29.0605;paint-order:markers stroke fill;stop-color:#000000"
           id="path2703"
           sodipodi:type="arc"
           sodipodi:cx="-14.355436"
           sodipodi:cy="26.160013"
           sodipodi:rx="10.399981"
           sodipodi:ry="10.399981"
           sodipodi:start="0"
           sodipodi:end="3.1415927"
           sodipodi:arc-type="slice"
           transform="rotate(-46.867943)"
           d="m -3.9554558,26.160013 a 10.399981,10.399981 0 0 1 -5.1999904,9.006648 10.399981,10.399981 0 0 1 -10.3999808,-10e-7 10.399981,10.399981 0 0 1 -5.19999,-9.006647 h 10.399981 z" />
        <path
           id="path3690"
           style="fill:#aa0000;fill-rule:evenodd;stroke-width:10.0743;paint-order:markers stroke fill;stop-color:#000000"
           d="M 5.4691371,30.762662 A 10.399982,10.399982 0 0 0 5.729613,30.515441 10.399982,10.399982 0 0 0 6.104384,30.120427 10.399982,10.399982 0 0 0 6.4580156,29.706424 10.399982,10.399982 0 0 0 6.7894332,29.274327 10.399982,10.399982 0 0 0 7.0977414,28.82575 10.399982,10.399982 0 0 0 7.3822228,28.361406 10.399982,10.399982 0 0 0 7.6421613,27.882911 10.399982,10.399982 0 0 0 7.8764826,27.391517 10.399982,10.399982 0 0 0 8.0848282,26.888479 10.399982,10.399982 0 0 0 8.2666602,26.37523 10.399982,10.399982 0 0 0 8.4212621,25.853201 10.399982,10.399982 0 0 0 8.548275,25.32365 10.399982,10.399982 0 0 0 8.647521,24.788366 10.399982,10.399982 0 0 0 8.718641,24.248424 10.399982,10.399982 0 0 0 8.761278,23.705615 10.399982,10.399982 0 0 0 8.775609,23.161375 10.399982,10.399982 0 0 0 8.6475207,21.534383 10.399982,10.399982 0 0 0 8.2664806,19.947698 10.399982,10.399982 0 0 0 7.6419817,18.439838 10.399982,10.399982 0 0 0 6.7892537,17.04842 10.399982,10.399982 0 0 0 5.7294334,15.807487 10.399982,10.399982 0 0 0 5.4573127,15.574956 a 10.399982,10.399982 0 0 0 -0.4808245,0.476168 10.399982,10.399982 0 0 0 0.4793917,14.700072 10.399982,10.399982 0 0 0 0.013257,0.01146 z" />
      </g>
    </g>
  </g>
</svg>
